<svg xmlns="http://www.w3.org/2000/svg" width="72" height="53" viewBox="0 0 72 53">
  <defs>
    <style>
      .cls-1 {
        fill: #87949e;
        fill-rule: evenodd;
      }
    </style>
  </defs>
  <path id="Activity" class="cls-1" d="M1225.73,1562.97l-8.47-19.08a3.176,3.176,0,0,0-6,.58l-8.37,36.86-11.01-26.76a3.176,3.176,0,0,0-5.86-.04l-10.01,23.37-5.4-10.82a3.182,3.182,0,0,0-2.84-1.76,3.143,3.143,0,0,0-2.44,1.14l-10.59,12.72a3.177,3.177,0,1,0,4.88,4.07l7.48-8.98,6.29,12.61a3.18,3.18,0,0,0,5.77-.17l9.72-22.72,11.95,29.04a3.173,3.173,0,0,0,6.03-.5l8.47-37.31,4.59,10.33a3.176,3.176,0,0,0,6.08-1.29A3.236,3.236,0,0,0,1225.73,1562.97Z" transform="translate(-1154 -1542)"/>
</svg>
